{
  "accessors": [
    {
      "bufferView": 2,
      "componentType": 5126,
      "count": 65532,
      "max": [
        2.00952410697937,
        1.7349859476089478,
        4.832417011260986
      ],
      "min": [
        -1.5677369832992554,
        -1.9715590476989746,
        0.011722000315785408
      ],
      "type": "VEC3"
    },
    {
      "bufferView": 2,
      "byteOffset": 786384,
      "componentType": 5126,
      "count": 65532,
      "max": [
        0.9999504089355469,
        0.9999717473983765,
        0.9999808073043823
      ],
      "min": [
        -0.9998946189880371,
        -0.9997733235359192,
        -0.9999997615814209
      ],
      "type": "VEC3"
    },
    {
      "bufferView": 1,
      "componentType": 5126,
      "count": 65532,
      "max": [
        1.0,
        0.9994609951972961
      ],
      "min": [
        9.999999747378752e-06,
        0.0
      ],
      "type": "VEC2"
    },
    {
      "bufferView": 0,
      "componentType": 5125,
      "count": 360564,
      "type": "SCALAR"
    },
    {
      "bufferView": 2,
      "byteOffset": 1572768,
      "componentType": 5126,
      "count": 65532,
      "max": [
        0.9483500123023987,
        1.9072810411453247,
        4.87263822555542
      ],
      "min": [
        -1.7254680395126343,
        -1.9566140174865723,
        0.6205480098724365
      ],
      "type": "VEC3"
    },
    {
      "bufferView": 2,
      "byteOffset": 2359152,
      "componentType": 5126,
      "count": 65532,
      "max": [
        0.9999525547027588,
        0.9999878406524658,
        0.9999641180038452
      ],
      "min": [
        -0.9998735189437866,
        -0.9999667406082153,
        -0.9999960660934448
      ],
      "type": "VEC3"
    },
    {
      "bufferView": 1,
      "byteOffset": 524256,
      "componentType": 5126,
      "count": 65532,
      "max": [
        0.9994000196456909,
        0.9994750022888184
      ],
      "min": [
        2.9999999242136255e-05,
        9.999999747378752e-06
      ],
      "type": "VEC2"
    },
    {
      "bufferView": 0,
      "byteOffset": 1442256,
      "componentType": 5125,
      "count": 326544,
      "type": "SCALAR"
    },
    {
      "bufferView": 2,
      "byteOffset": 3145536,
      "componentType": 5126,
      "count": 65532,
      "max": [
        0.9435999989509583,
        1.8943250179290771,
        4.6255879402160645
      ],
      "min": [
        -1.54299795627594,
        -1.3303149938583374,
        1.2196069955825806
      ],
      "type": "VEC3"
    },
    {
      "bufferView": 2,
      "byteOffset": 3931920,
      "componentType": 5126,
      "count": 65532,
      "max": [
        0.9999904632568359,
        0.9999915361404419,
        0.9999972581863403
      ],
      "min": [
        -0.9999730587005615,
        -0.9999877214431763,
        -0.9999746084213257
      ],
      "type": "VEC3"
    },
    {
      "bufferView": 1,
      "byteOffset": 1048512,
      "componentType": 5126,
      "count": 65532,
      "max": [
        0.9994059801101685,
        0.9994639754295349
      ],
      "min": [
        7.599999662488699e-05,
        1.8999999156221747e-05
      ],
      "type": "VEC2"
    },
    {
      "bufferView": 0,
      "byteOffset": 2748432,
      "componentType": 5125,
      "count": 321954,
      "type": "SCALAR"
    },
    {
      "bufferView": 2,
      "byteOffset": 4718304,
      "componentType": 5126,
      "count": 65532,
      "max": [
        0.9470279812812805,
        1.7576470375061035,
        4.726093769073486
      ],
      "min": [
        -1.2112540006637573,
        -1.3407670259475708,
        1.262935996055603
      ],
      "type": "VEC3"
    },
    {
      "bufferView": 2,
      "byteOffset": 5504688,
      "componentType": 5126,
      "count": 65532,
      "max": [
        0.9999455213546753,
        0.9999717473983765,
        0.9999672174453735
      ],
      "min": [
        -0.9999697208404541,
        -0.9999263286590576,
        -0.9999282360076904
      ],
      "type": "VEC3"
    },
    {
      "bufferView": 1,
      "byteOffset": 1572768,
      "componentType": 5126,
      "count": 65532,
      "max": [
        0.9994980096817017,
        0.9994850158691406
      ],
      "min": [
        0.00015799999528098851,
        2.5999999706982635e-05
      ],
      "type": "VEC2"
    },
    {
      "bufferView": 0,
      "byteOffset": 4036248,
      "componentType": 5125,
      "count": 306312,
      "type": "SCALAR"
    },
    {
      "bufferView": 2,
      "byteOffset": 6291072,
      "componentType": 5126,
      "count": 65532,
      "max": [
        0.8665279746055603,
        1.681993007659912,
        4.6713690757751465
      ],
      "min": [
        -1.0410610437393188,
        -1.1473469734191895,
        1.2242790460586548
      ],
      "type": "VEC3"
    },
    {
      "bufferView": 2,
      "byteOffset": 7077456,
      "componentType": 5126,
      "count": 65532,
      "max": [
        0.9999904632568359,
        0.9999675750732422,
        1.0
      ],
      "min": [
        -0.9999935626983643,
        -0.9999167919158936,
        -0.9999817609786987
      ],
      "type": "VEC3"
    },
    {
      "bufferView": 1,
      "byteOffset": 2097024,
      "componentType": 5126,
      "count": 65532,
      "max": [
        0.9997760057449341,
        0.9993730187416077
      ],
      "min": [
        2.499999936844688e-05,
        9.7999996796716e-05
      ],
      "type": "VEC2"
    },
    {
      "bufferView": 0,
      "byteOffset": 5261496,
      "componentType": 5125,
      "count": 309447,
      "type": "SCALAR"
    },
    {
      "bufferView": 2,
      "byteOffset": 7863840,
      "componentType": 5126,
      "count": 65532,
      "max": [
        2.328994035720825,
        1.2354530096054077,
        4.9833149909973145
      ],
      "min": [
        -0.8663489818572998,
        -0.911296010017395,
        1.2472349405288696
      ],
      "type": "VEC3"
    },
    {
      "bufferView": 2,
      "byteOffset": 8650224,
      "componentType": 5126,
      "count": 65532,
      "max": [
        0.9999719858169556,
        0.9999738931655884,
        0.9999277591705322
      ],
      "min": [
        -0.9999862909317017,
        -0.9999407529830933,
        -0.9999994039535522
      ],
      "type": "VEC3"
    },
    {
      "bufferView": 1,
      "byteOffset": 2621280,
      "componentType": 5126,
      "count": 65532,
      "max": [
        0.9988909959793091,
        0.9989690184593201
      ],
      "min": [
        0.0011249999515712261,
        1.8000000636675395e-05
      ],
      "type": "VEC2"
    },
    {
      "bufferView": 0,
      "byteOffset": 6499284,
      "componentType": 5125,
      "count": 323289,
      "type": "SCALAR"
    },
    {
      "bufferView": 2,
      "byteOffset": 9436608,
      "componentType": 5126,
      "count": 65532,
      "max": [
        2.01631498336792,
        0.49747100472450256,
        5.137617111206055
      ],
      "min": [
        0.11833799630403519,
        -1.6909170150756836,
        2.1291279792785645
      ],
      "type": "VEC3"
    },
    {
      "bufferView": 2,
      "byteOffset": 10222992,
      "componentType": 5126,
      "count": 65532,
      "max": [
        0.9999868869781494,
        0.9999788999557495,
        0.9998103976249695
      ],
      "min": [
        -0.9999752044677734,
        -0.9999995231628418,
        -0.9997603297233582
      ],
      "type": "VEC3"
    },
    {
      "bufferView": 1,
      "byteOffset": 3145536,
      "componentType": 5126,
      "count": 65532,
      "max": [
        0.9994770288467407,
        0.9994670152664185
      ],
      "min": [
        3.999999989900971e-06,
        3.7999998312443495e-05
      ],
      "type": "VEC2"
    },
    {
      "bufferView": 0,
      "byteOffset": 7792440,
      "componentType": 5125,
      "count": 330186,
      "type": "SCALAR"
    },
    {
      "bufferView": 2,
      "byteOffset": 11009376,
      "componentType": 5126,
      "count": 65532,
      "max": [
        1.5846740007400513,
        1.260604977607727,
        5.087870121002197
      ],
      "min": [
        -0.28948700428009033,
        -1.6908760070800781,
        1.550389051437378
      ],
      "type": "VEC3"
    },
    {
      "bufferView": 2,
      "byteOffset": 11795760,
      "componentType": 5126,
      "count": 65532,
      "max": [
        0.9999223947525024,
        0.9998688697814941,
        0.9999126195907593
      ],
      "min": [
        -0.9999958276748657,
        -0.9999995231628418,
        -0.9996107220649719
      ],
      "type": "VEC3"
    },
    {
      "bufferView": 1,
      "byteOffset": 3669792,
      "componentType": 5126,
      "count": 65532,
      "max": [
        0.9994419813156128,
        0.9994400143623352
      ],
      "min": [
        9.999999747378752e-06,
        2.4000000848900527e-05
      ],
      "type": "VEC2"
    },
    {
      "bufferView": 0,
      "byteOffset": 9113184,
      "componentType": 5125,
      "count": 308538,
      "type": "SCALAR"
    },
    {
      "bufferView": 2,
      "byteOffset": 12582144,
      "componentType": 5126,
      "count": 65532,
      "max": [
        1.4846489429473877,
        1.2528129816055298,
        5.040609836578369
      ],
      "min": [
        -0.5945249795913696,
        -0.7043280005455017,
        1.49235200881958
      ],
      "type": "VEC3"
    },
    {
      "bufferView": 2,
      "byteOffset": 13368528,
      "componentType": 5126,
      "count": 65532,
      "max": [
        0.9999328851699829,
        0.9999687671661377,
        0.9999991655349731
      ],
      "min": [
        -0.9999105930328369,
        -0.9999241828918457,
        -0.9998685121536255
      ],
      "type": "VEC3"
    },
    {
      "bufferView": 1,
      "byteOffset": 4194048,
      "componentType": 5126,
      "count": 65532,
      "max": [
        0.9989269971847534,
        0.9994750022888184
      ],
      "min": [
        9.7999996796716e-05,
        1.700000029813964e-05
      ],
      "type": "VEC2"
    },
    {
      "bufferView": 0,
      "byteOffset": 10347336,
      "componentType": 5125,
      "count": 314805,
      "type": "SCALAR"
    },
    {
      "bufferView": 2,
      "byteOffset": 14154912,
      "componentType": 5126,
      "count": 37408,
      "max": [
        1.642691969871521,
        1.3695679903030396,
        4.572944164276123
      ],
      "min": [
        -0.8202390074729919,
        -0.8778629899024963,
        1.2685519456863403
      ],
      "type": "VEC3"
    },
    {
      "bufferView": 2,
      "byteOffset": 14603808,
      "componentType": 5126,
      "count": 37408,
      "max": [
        0.9999411106109619,
        0.9999675750732422,
        0.9999877214431763
      ],
      "min": [
        -0.9999661445617676,
        -0.9999085664749146,
        -0.999967098236084
      ],
      "type": "VEC3"
    },
    {
      "bufferView": 1,
      "byteOffset": 4718304,
      "componentType": 5126,
      "count": 37408,
      "max": [
        0.9994710087776184,
        0.9994840025901794
      ],
      "min": [
        5.199999941396527e-05,
        7.000000186963007e-05
      ],
      "type": "VEC2"
    },
    {
      "bufferView": 0,
      "byteOffset": 11606556,
      "componentType": 5125,
      "count": 164814,
      "type": "SCALAR"
    }
  ],
  "asset": {
    "extras": {
      "author": "Lassi Kaukonen (https://sketchfab.com/thesidekick)",
      "license": "CC-BY-4.0 (http://creativecommons.org/licenses/by/4.0/)",
      "source": "https://sketchfab.com/3d-models/skimmia-japonica-59e376e2d94741b7aea093e415a672cd",
      "title": "Skimmia Japonica"
    },
    "generator": "Sketchfab-15.40.0",
    "version": "2.0"
  },
  "bufferViews": [
    {
      "buffer": 0,
      "byteLength": 12265812,
      "name": "floatBufferViews",
      "target": 34963
    },
    {
      "buffer": 0,
      "byteLength": 5017568,
      "byteOffset": 12265812,
      "byteStride": 8,
      "name": "floatBufferViews",
      "target": 34962
    },
    {
      "buffer": 0,
      "byteLength": 15052704,
      "byteOffset": 17283380,
      "byteStride": 12,
      "name": "floatBufferViews",
      "target": 34962
    }
  ],
  "buffers": [
    {
      "byteLength": 32336084,
      "uri": "scene.bin"
    }
  ],
  "extensionsUsed": [
    "KHR_materials_specular"
  ],
  "images": [
    {
      "uri": "textures/Skimmia_Japonica_baseColor.jpeg"
    }
  ],
  "materials": [
    {
      "doubleSided": true,
      "extensions": {
        "KHR_materials_specular": {
          "specularColorFactor": [
            1.0,
            1.0,
            1.0
          ],
          "specularFactor": 0.2118101693262303
        }
      },
      "name": "Skimmia_Japonica",
      "pbrMetallicRoughness": {
        "baseColorTexture": {
          "index": 0
        },
        "metallicFactor": 0.0
      }
    }
  ],
  "meshes": [
    {
      "name": "Object_0",
      "primitives": [
        {
          "attributes": {
            "NORMAL": 1,
            "POSITION": 0,
            "TEXCOORD_0": 2
          },
          "indices": 3,
          "material": 0,
          "mode": 4
        }
      ]
    },
    {
      "name": "Object_1",
      "primitives": [
        {
          "attributes": {
            "NORMAL": 5,
            "POSITION": 4,
            "TEXCOORD_0": 6
          },
          "indices": 7,
          "material": 0,
          "mode": 4
        }
      ]
    },
    {
      "name": "Object_2",
      "primitives": [
        {
          "attributes": {
            "NORMAL": 9,
            "POSITION": 8,
            "TEXCOORD_0": 10
          },
          "indices": 11,
          "material": 0,
          "mode": 4
        }
      ]
    },
    {
      "name": "Object_3",
      "primitives": [
        {
          "attributes": {
            "NORMAL": 13,
            "POSITION": 12,
            "TEXCOORD_0": 14
          },
          "indices": 15,
          "material": 0,
          "mode": 4
        }
      ]
    },
    {
      "name": "Object_4",
      "primitives": [
        {
          "attributes": {
            "NORMAL": 17,
            "POSITION": 16,
            "TEXCOORD_0": 18
          },
          "indices": 19,
          "material": 0,
          "mode": 4
        }
      ]
    },
    {
      "name": "Object_5",
      "primitives": [
        {
          "attributes": {
            "NORMAL": 21,
            "POSITION": 20,
            "TEXCOORD_0": 22
          },
          "indices": 23,
          "material": 0,
          "mode": 4
        }
      ]
    },
    {
      "name": "Object_6",
      "primitives": [
        {
          "attributes": {
            "NORMAL": 25,
            "POSITION": 24,
            "TEXCOORD_0": 26
          },
          "indices": 27,
          "material": 0,
          "mode": 4
        }
      ]
    },
    {
      "name": "Object_7",
      "primitives": [
        {
          "attributes": {
            "NORMAL": 29,
            "POSITION": 28,
            "TEXCOORD_0": 30
          },
          "indices": 31,
          "material": 0,
          "mode": 4
        }
      ]
    },
    {
      "name": "Object_8",
      "primitives": [
        {
          "attributes": {
            "NORMAL": 33,
            "POSITION": 32,
            "TEXCOORD_0": 34
          },
          "indices": 35,
          "material": 0,
          "mode": 4
        }
      ]
    },
    {
      "name": "Object_9",
      "primitives": [
        {
          "attributes": {
            "NORMAL": 37,
            "POSITION": 36,
            "TEXCOORD_0": 38
          },
          "indices": 39,
          "material": 0,
          "mode": 4
        }
      ]
    }
  ],
  "nodes": [
    {
      "children": [
        1
      ],
      "matrix": [
        1.0,
        0.0,
        0.0,
        0.0,
        0.0,
        2.220446049250313e-16,
        -1.0,
        0.0,
        0.0,
        1.0,
        2.220446049250313e-16,
        0.0,
        0.0,
        0.0,
        0.0,
        1.0
      ],
      "name": "Sketchfab_model"
    },
    {
      "children": [
        2,
        3,
        4,
        5,
        6,
        7,
        8,
        9,
        10,
        11
      ],
      "name": "Skimmia_Japonica_SF.obj.cleaner.materialmerger.gles"
    },
    {
      "mesh": 0,
      "name": "Object_2"
    },
    {
      "mesh": 1,
      "name": "Object_3"
    },
    {
      "mesh": 2,
      "name": "Object_4"
    },
    {
      "mesh": 3,
      "name": "Object_5"
    },
    {
      "mesh": 4,
      "name": "Object_6"
    },
    {
      "mesh": 5,
      "name": "Object_7"
    },
    {
      "mesh": 6,
      "name": "Object_8"
    },
    {
      "mesh": 7,
      "name": "Object_9"
    },
    {
      "mesh": 8,
      "name": "Object_10"
    },
    {
      "mesh": 9,
      "name": "Object_11"
    }
  ],
  "samplers": [
    {
      "magFilter": 9729,
      "minFilter": 9987,
      "wrapS": 10497,
      "wrapT": 10497
    }
  ],
  "scene": 0,
  "scenes": [
    {
      "name": "Sketchfab_Scene",
      "nodes": [
        0
      ]
    }
  ],
  "textures": [
    {
      "sampler": 0,
      "source": 0
    }
  ]
}
